<svg width="93" height="97" viewBox="0 0 93 97" fill="none" xmlns="http://www.w3.org/2000/svg">
<path d="M46.5104 23.6236C33.3151 23.6236 22.6717 34.7272 22.6717 48.4932C22.6717 62.2591 33.3151 73.3627 46.5104 73.3627C59.7057 73.3627 70.3491 62.2591 70.3491 48.4932C70.3491 34.7272 59.7057 23.6236 46.5104 23.6236ZM46.5104 64.6616C37.9832 64.6616 31.0121 57.4107 31.0121 48.4932C31.0121 39.5756 37.9625 32.3247 46.5104 32.3247C55.0583 32.3247 62.0086 39.5756 62.0086 48.4932C62.0086 57.4107 55.0375 64.6616 46.5104 64.6616ZM76.8845 22.6063C76.8845 25.8313 74.3948 28.407 71.3242 28.407C68.2329 28.407 65.7639 25.8097 65.7639 22.6063C65.7639 19.4029 68.2536 16.8056 71.3242 16.8056C74.3948 16.8056 76.8845 19.4029 76.8845 22.6063ZM92.6732 28.4936C92.3205 20.7232 90.6192 13.8403 85.1627 8.16939C79.7269 2.49852 73.1292 0.723667 65.6809 0.334066C58.0044 -0.12047 34.9956 -0.12047 27.3191 0.334066C19.8915 0.702023 13.2939 2.47688 7.83731 8.14774C2.38076 13.8186 0.700223 20.7016 0.326771 28.472C-0.108924 36.4804 -0.108924 60.4842 0.326771 68.4927C0.679476 76.2631 2.38076 83.1461 7.83731 88.8169C13.2939 94.4878 19.8708 96.2627 27.3191 96.6523C34.9956 97.1068 58.0044 97.1068 65.6809 96.6523C73.1292 96.2843 79.7269 94.5095 85.1627 88.8169C90.5985 83.1461 92.2998 76.2631 92.6732 68.4927C93.1089 60.4842 93.1089 36.5021 92.6732 28.4936ZM82.756 77.0856C81.1377 81.3279 78.0049 84.5963 73.9176 86.3062C67.7972 88.8386 53.274 88.2542 46.5104 88.2542C39.7467 88.2542 25.2028 88.8169 19.1031 86.3062C15.0366 84.6179 11.9038 81.3496 10.2648 77.0856C7.83731 70.7005 8.39749 55.5493 8.39749 48.4932C8.39749 41.437 7.85806 26.2642 10.2648 19.9007C11.883 15.6584 15.0159 12.3901 19.1031 10.6802C25.2236 8.14774 39.7467 8.73215 46.5104 8.73215C53.274 8.73215 67.8179 8.16939 73.9176 10.6802C77.9841 12.3684 81.117 15.6368 82.756 19.9007C85.1834 26.2859 84.6233 41.437 84.6233 48.4932C84.6233 55.5493 85.1834 70.7221 82.756 77.0856Z" fill="#E8D9D9"/>
</svg>
