<svg width="109" height="109" viewBox="0 0 109 109" fill="none" xmlns="http://www.w3.org/2000/svg">
<path d="M24.3985 108.998H1.80045V36.2255H24.3985V108.998ZM13.0873 26.2987C5.86118 26.2987 0 20.3134 0 13.0873C5.17214e-08 9.61633 1.37884 6.28753 3.83318 3.83318C6.28753 1.37884 9.61633 0 13.0873 0C16.5583 0 19.8871 1.37884 22.3414 3.83318C24.7958 6.28753 26.1746 9.61633 26.1746 13.0873C26.1746 20.3134 20.311 26.2987 13.0873 26.2987ZM108.976 108.998H86.4263V73.5726C86.4263 65.1299 86.256 54.3029 74.6772 54.3029C62.928 54.3029 61.1276 63.4755 61.1276 72.9643V108.998H38.5539V36.2255H60.2274V46.1523H60.5437C63.5606 40.4346 70.9303 34.4007 81.9252 34.4007C104.796 34.4007 109 49.4612 109 69.0228V108.998H108.976Z" fill="#E5D7D7"/>
</svg>
